<svg xmlns="http://www.w3.org/2000/svg" version="1.1" xmlns:xlink="http://www.w3.org/1999/xlink" xmlns:svgjs="http://svgjs.dev/svgjs" width="100%" height="100%" viewBox="0 0 1000 600"><rect width="1000" height="600" x="0" y="0" fill="#ffffff"/><g><rect width="333.3333333333333" height="333.3333333333333" rx="13.333333333333334" ry="13.333333333333334" y="163.5668220638434" fill="#000000" transform="matrix(0.8843635626666728,0,0,0.8843635626666728,0,7.9535418558468365)" x="141.34458923339844"/><path d="M243.81172693025977 332.1316688873515L243.81172693025977 332.1316688873515Q243.81172693025977 310.94273472736324 250.16840717825625 295.16875040826096Q256.52508742625275 279.39476608915857 266.8841219044692 271.12519595171864L266.8841219044692 271.12519595171864Q286.60160230334714 255.23349533172748 309.7034263527788 255.23349533172748L309.7034263527788 255.23349533172748Q317.53156036188557 255.23349533172748 324.74168379132607 256.4989455662824Q331.95180722076645 257.7643958008372 341.0453914644281 262.1198989337237Q350.168404783312 266.445972991388 356.6428013321972 273.7738127217172Q363.0877688058604 281.07222337682424 367.64927546530225 294.6390270542612Q372.2107821247442 308.20583073169814 372.2107821247442 326.2164247676881L372.2107821247442 326.2164247676881Q372.2107821247442 364.35650625566706 353.46446120819905 384.8097135351001Q334.68871121643167 405.2334917393111 305.3479232198923 405.2334917393111Q276.0071352233531 405.2334917393111 259.9094310768064 386.6048871236547Q243.81172693025977 367.9468534327762 243.81172693025977 332.1316688873515ZM307.79053646333546 385.3394368890999L307.79053646333546 385.3394368890999Q345.7246144247589 385.3394368890999 345.7246144247589 329.6007684182418Q345.7246144247589 273.86209994738385 307.1430968084469 273.86209994738385L307.1430968084469 273.86209994738385Q293.60572220623214 273.86209994738385 284.8064287147926 281.18993967771314Q276.0071352233531 288.4883503328201 272.6227915727994 299.40653724025856Q269.23844792224565 310.324724147697 269.23844792224565 324.71554193135563L269.23844792224565 324.71554193135563Q269.23844792224565 385.3394368890999 307.79053646333546 385.3394368890999Z " fill="#ff77ff" transform="matrix(0.8843635626666728,0,0,0.8843635626666728,0,7.9535418558468365)"/><path d="M558.011250856041 332.1316688873515L558.011250856041 332.1316688873515Q558.011250856041 310.94273472736324 564.3679311040374 295.16875040826096Q570.7246113520339 279.39476608915857 581.0836458302504 271.12519595171864L581.0836458302504 271.12519595171864Q600.8011262291284 255.23349533172748 623.90295027856 255.23349533172748L623.90295027856 255.23349533172748Q631.7310842876668 255.23349533172748 638.9412077171073 256.4989455662824Q646.1513311465477 257.7643958008372 655.2449153902094 262.1198989337237Q664.3679287090932 266.445972991388 670.8423252579785 273.7738127217172Q677.2872927316416 281.07222337682424 681.8487993910835 294.6390270542612Q686.4103060505254 308.20583073169814 686.4103060505254 326.2164247676881L686.4103060505254 326.2164247676881Q686.4103060505254 364.35650625566706 667.6639851339802 384.8097135351001Q648.8882351422128 405.2334917393111 619.5474471456736 405.2334917393111Q590.2066591491342 405.2334917393111 574.1089550025877 386.6048871236547Q558.011250856041 367.9468534327762 558.011250856041 332.1316688873515ZM621.9900603891167 385.3394368890999L621.9900603891167 385.3394368890999Q659.92413835054 385.3394368890999 659.92413835054 329.6007684182418Q659.92413835054 273.86209994738385 621.3426207342281 273.86209994738385L621.3426207342281 273.86209994738385Q607.8052461320134 273.86209994738385 599.0059526405738 281.18993967771314Q590.2066591491342 288.4883503328201 586.8223154985806 299.40653724025856Q583.4379718480269 310.324724147697 583.4379718480269 324.71554193135563L583.4379718480269 324.71554193135563Q583.4379718480269 385.3394368890999 621.9900603891167 385.3394368890999ZM700.8011238341841 312.00218143536273L700.8011238341841 312.00218143536273L700.8011238341841 300.99570730225764Q700.8011238341841 297.8173671782595 703.9794639581824 297.8173671782595L703.9794639581824 297.8173671782595L733.0259612024996 297.8173671782595Q735.7628651981647 297.8173671782595 736.2043013264978 300.99570730225764L736.2043013264978 300.99570730225764L737.8817586141636 313.29706074513973Q748.9176618224908 295.4924702357051 770.9600391639229 295.4924702357051Q792.972987430133 295.4924702357051 799.977107333018 314.12107485136147L799.977107333018 314.12107485136147Q811.4250175944561 295.4924702357051 833.2319623341108 295.4924702357051L833.2319623341108 295.4924702357051Q866.0748102820926 295.4924702357051 866.0748102820926 331.51365830768526L866.0748102820926 331.51365830768526L866.0748102820926 385.95744746876613L878.1701601984192 385.95744746876613Q881.3485003224174 385.95744746876613 881.3485003224174 389.1357875927644L881.3485003224174 389.1357875927644L881.3485003224174 399.5242511462031Q881.3485003224174 402.70259127020137 878.1701601984192 402.70259127020137L878.1701601984192 402.70259127020137L831.554505046445 402.70259127020137Q828.3761649224467 402.70259127020137 828.3761649224467 399.5242511462031L828.3761649224467 399.5242511462031L828.3761649224467 389.1357875927644Q828.3761649224467 385.95744746876613 831.554505046445 385.95744746876613L831.554505046445 385.95744746876613L842.3549756529945 385.95744746876613L842.3549756529945 342.1081253876793Q842.3549756529945 328.74732523679785 838.9706320024409 322.5966485153568Q835.5862883518872 316.475400869138 825.2861120241151 316.475400869138Q815.0153647715653 316.475400869138 808.8646880501243 321.97863793569053Q802.7434404039054 327.48187500224304 802.7434404039054 334.8980019582389L802.7434404039054 334.8980019582389L802.7434404039054 385.95744746876613L812.8964713555664 385.95744746876613Q816.0748114795648 385.95744746876613 816.0748114795648 389.1357875927644L816.0748114795648 389.1357875927644L816.0748114795648 399.5242511462031Q816.0748114795648 402.70259127020137 812.8964713555664 402.70259127020137L812.8964713555664 402.70259127020137L769.4591563275906 402.70259127020137Q766.2808162035923 402.70259127020137 766.2808162035923 399.5242511462031L766.2808162035923 399.5242511462031L766.2808162035923 389.1357875927644Q766.2808162035923 385.95744746876613 769.4591563275906 385.95744746876613L769.4591563275906 385.95744746876613L778.9941766995852 385.95744746876613L778.9941766995852 342.1081253876793Q778.9941766995852 328.74732523679785 775.6098330490316 322.5966485153568Q772.2254893984779 316.475400869138 761.7193095441504 316.475400869138Q751.242558765045 316.475400869138 745.2095983444927 322.7143648162457Q739.1766379239406 328.95332876335334 739.1766379239406 337.22289890079315L739.1766379239406 337.22289890079315L739.1766379239406 385.95744746876613L752.0960019464891 385.95744746876613Q755.2743420704873 385.95744746876613 755.2743420704873 389.1357875927644L755.2743420704873 389.1357875927644L755.2743420704873 399.5242511462031Q755.2743420704873 402.70259127020137 752.0960019464891 402.70259127020137L752.0960019464891 402.70259127020137L704.21489655996 402.70259127020137Q701.0365564359618 402.70259127020137 701.0365564359618 399.5242511462031L701.0365564359618 399.5242511462031L701.0365564359618 389.1357875927644Q701.0365564359618 385.95744746876613 704.21489655996 385.95744746876613L704.21489655996 385.95744746876613L715.4273742196204 385.95744746876613L715.4273742196204 315.1805215593609L703.9794639581824 315.1805215593609Q700.8011238341841 315.1805215593609 700.8011238341841 312.00218143536273ZM954.2443196478215 339.7832284451251L954.2443196478215 339.7832284451251L954.2443196478215 332.3671014891292Q954.2443196478215 317.29941497535975 945.7687459838263 313.5030642716952L945.7687459838263 313.5030642716952Q941.736962678384 311.79617790880724 934.1148321958327 311.79617790880724L934.1148321958327 311.79617790880724Q919.6945853369517 311.79617790880724 916.7222487395089 325.3629815862442L916.7222487395089 325.3629815862442Q916.1042381598426 328.54132171024247 913.5439086155108 328.54132171024247L913.5439086155108 328.54132171024247L899.9771049380737 328.54132171024247Q896.5927612875201 328.54132171024247 897.0341974158531 325.3629815862442L897.0341974158531 325.3629815862442Q897.858211522075 309.88328801936393 909.5121253100684 302.7025936651456Q921.166039098062 295.4924702357051 939.176633134052 295.4924702357051L939.176633134052 295.4924702357051Q977.1107110954755 295.4924702357051 977.1107110954755 330.24820807313034L977.1107110954755 330.24820807313034L977.1107110954755 385.95744746876613L986.2337244143594 385.95744746876613Q989.4120645383576 385.95744746876613 989.4120645383576 389.1357875927644L989.4120645383576 389.1357875927644L989.4120645383576 399.5242511462031Q989.4120645383576 402.70259127020137 986.2337244143594 402.70259127020137L986.2337244143594 402.70259127020137L961.2190104754844 402.70259127020137Q958.4821064798192 402.70259127020137 958.040670351486 399.5242511462031L958.040670351486 399.5242511462031L956.5692165903757 389.783227247653Q945.1213063289376 405.2334917393111 923.5203651158384 405.2334917393111L923.5203651158384 405.2334917393111Q909.9535614384016 405.2334917393111 901.0365516460732 398.1410846107594Q892.1489709289671 391.0486774822078 892.1489709289671 375.3629803887721L892.1489709289671 375.3629803887721Q892.1489709289671 354.8214858836723 909.306121783513 347.19935540112095L909.306121783513 347.19935540112095Q923.5203651158384 340.6072425513468 943.2084164394943 339.98923197168057L943.2084164394943 339.98923197168057Q947.2401997449366 339.98923197168057 954.2443196478215 339.7832284451251ZM954.6563267009324 370.7131865036635L954.6563267009324 370.7131865036635L954.6563267009324 354.38004975533926Q934.3208357223881 354.38004975533926 929.6416127620573 356.2929396447826Q924.9918188769489 358.205829534226 921.4014716998397 360.11871942366935L921.4014716998397 360.11871942366935Q914.6033553235101 363.7090666007785 914.6033553235101 373.24408697277323L914.6033553235101 373.24408697277323Q914.6033553235101 387.8703373582096 931.3484991249453 387.8703373582096L931.3484991249453 387.8703373582096Q942.3549732580503 387.8703373582096 948.5056499794913 382.6908201191014Q954.6563267009324 377.4818738047708 954.6563267009324 370.7131865036635Z " fill="#ff77ff" transform="matrix(0.8843635626666728,0,0,0.8843635626666728,0,7.9535418558468365)"/></g></svg>